M.ufo
<glyph name="period" format="1">
  <advance width="526"/>
  <unicode hex="002E"/>
  <outline>
    <contour>
      <point x="117" y="88" type="curve" smooth="yes"/>
      <point x="109" y="19"/>
      <point x="145" y="-18"/>
      <point x="200" y="-18" type="curve" smooth="yes"/>
      <point x="261" y="-18"/>
      <point x="318" y="28"/>
      <point x="329" y="105" type="curve" smooth="yes"/>
      <point x="337" y="165"/>
      <point x="311" y="210"/>
      <point x="239" y="210" type="curve" smooth="yes"/>
      <point x="181" y="210"/>
      <point x="127" y="160"/>
    </contour>
  </outline>
</glyph>
<glyph name="one" format="1">
  <advance width="920"/>
  <unicode hex="0031"/>
  <outline>
    <contour>
      <point x="119" y="0" type="line"/>
      <point x="732" y="0" type="line"/>
      <point x="739" y="70" type="line"/>
      <point x="503" y="92" type="line"/>
      <point x="656" y="1143" type="line"/>
      <point x="589" y="1162" type="line"/>
      <point x="483" y="1089"/>
      <point x="313" y="991"/>
      <point x="173" y="960" type="curve"/>
      <point x="184" y="882" type="line"/>
      <point x="295" y="904"/>
      <point x="406" y="943"/>
      <point x="477" y="966" type="curve"/>
      <point x="349" y="91" type="line"/>
      <point x="126" y="70" type="line"/>
    </contour>
  </outline>
</glyph>
<glyph name="equal" format="1">
  <advance width="1063"/>
  <unicode hex="003D"/>
  <outline>
    <contour>
      <point x="153" y="865" type="line"/>
      <point x="967" y="865" type="line"/>
      <point x="981" y="990" type="line"/>
      <point x="166" y="990" type="line"/>
    </contour>
    <contour>
      <point x="83" y="355" type="line"/>
      <point x="897" y="355" type="line"/>
      <point x="911" y="480" type="line"/>
      <point x="96" y="480" type="line"/>
    </contour>
  </outline>
</glyph>
<glyph name="C" format="1">
  <advance width="1232"/>
  <unicode hex="0043"/>
  <outline>
    <contour>
      <point x="90" y="627" type="curve" smooth="yes"/>
      <point x="95" y="317"/>
      <point x="239" y="-16"/>
      <point x="610" y="-16" type="curve" smooth="yes"/>
      <point x="816" y="-16"/>
      <point x="980" y="46"/>
      <point x="1058" y="70" type="curve"/>
      <point x="1099" y="401" type="line"/>
      <point x="1006" y="402" type="line"/>
      <point x="943" y="178" type="line"/>
      <point x="889" y="112"/>
      <point x="743" y="79"/>
      <point x="639" y="79" type="curve" smooth="yes"/>
      <point x="358" y="79"/>
      <point x="254" y="373"/>
      <point x="249" y="643" type="curve" smooth="yes"/>
      <point x="242" y="991"/>
      <point x="419" y="1442"/>
      <point x="809" y="1442" type="curve" smooth="yes"/>
      <point x="955" y="1442"/>
      <point x="1018" y="1416"/>
      <point x="1062" y="1389" type="curve"/>
      <point x="1070" y="1114" type="line"/>
      <point x="1160" y="1114" type="line"/>
      <point x="1221" y="1477" type="line"/>
      <point x="1178" y="1490" type="line"/>
      <point x="1116" y="1507"/>
      <point x="1005" y="1538"/>
      <point x="826" y="1538" type="curve" smooth="yes"/>
      <point x="428" y="1538"/>
      <point x="80" y="1175"/>
    </contour>
    <contour>
      <point x="618" y="-168" type="move" name="btm"/>
    </contour>
    <contour>
      <point x="800" y="1700" type="move" name="top"/>
    </contour>
  </outline>
</glyph>
<glyph name="H" format="1">
  <advance width="1515"/>
  <unicode hex="0048"/>
  <outline>
    <contour>
      <point x="894" y="0" type="line"/>
      <point x="1357" y="0" type="line"/>
      <point x="1364" y="69" type="line"/>
      <point x="1209" y="95" type="line"/>
      <point x="1375" y="1422" type="line"/>
      <point x="1516" y="1441" type="line"/>
      <point x="1525" y="1522" type="line"/>
      <point x="1085" y="1522" type="line"/>
      <point x="1078" y="1441" type="line"/>
      <point x="1225" y="1422" type="line"/>
      <point x="1151" y="830" type="line"/>
      <point x="426" y="830" type="line"/>
      <point x="501" y="1422" type="line"/>
      <point x="651" y="1441" type="line"/>
      <point x="660" y="1522" type="line"/>
      <point x="224" y="1522" type="line"/>
      <point x="215" y="1441" type="line"/>
      <point x="351" y="1422" type="line"/>
      <point x="184" y="94" type="line"/>
      <point x="34" y="69" type="line"/>
      <point x="27" y="0" type="line"/>
      <point x="484" y="0" type="line"/>
      <point x="490" y="70" type="line"/>
      <point x="334" y="94" type="line"/>
      <point x="413" y="726" type="line"/>
      <point x="1138" y="726" type="line"/>
      <point x="1060" y="95" type="line"/>
      <point x="900" y="70" type="line"/>
    </contour>
    <contour>
      <point x="825" y="-168" type="move" name="btm"/>
    </contour>
    <contour>
      <point x="884" y="1700" type="move" name="top"/>
    </contour>
  </outline>
</glyph>
<glyph name="L" format="1">
  <advance width="1168"/>
  <unicode hex="004C"/>
  <outline>
    <contour>
      <point x="28" y="0" type="line"/>
      <point x="998" y="0" type="line"/>
      <point x="1094" y="431" type="line"/>
      <point x="1004" y="449" type="line"/>
      <point x="879" y="103" type="line"/>
      <point x="334" y="94" type="line"/>
      <point x="501" y="1422" type="line"/>
      <point x="677" y="1441" type="line"/>
      <point x="685" y="1522" type="line"/>
      <point x="224" y="1522" type="line"/>
      <point x="215" y="1441" type="line"/>
      <point x="351" y="1422" type="line"/>
      <point x="184" y="94" type="line"/>
      <point x="34" y="70" type="line"/>
    </contour>
    <contour>
      <point x="574" y="-168" type="move" name="btm"/>
    </contour>
    <contour>
      <point x="492" y="1702" type="move" name="top"/>
    </contour>
  </outline>
</glyph>
<glyph name="W" format="1">
  <advance width="1791"/>
  <unicode hex="0057"/>
  <outline>
    <contour>
      <point x="383" y="-10" type="line"/>
      <point x="535" y="-10" type="line"/>
      <point x="960" y="1065" type="line"/>
      <point x="1072" y="-10" type="line"/>
      <point x="1226" y="-10" type="line"/>
      <point x="1846" y="1421" type="line"/>
      <point x="1985" y="1441" type="line"/>
      <point x="1997" y="1522" type="line"/>
      <point x="1575" y="1522" type="line"/>
      <point x="1566" y="1441" type="line"/>
      <point x="1719" y="1421" type="line"/>
      <point x="1288" y="398" type="line"/>
      <point x="1187" y="135" type="line"/>
      <point x="1166" y="435" type="line"/>
      <point x="1066" y="1424" type="line"/>
      <point x="1245" y="1441" type="line"/>
      <point x="1261" y="1522" type="line"/>
      <point x="785" y="1522" type="line"/>
      <point x="777" y="1441" type="line"/>
      <point x="914" y="1424" type="line"/>
      <point x="930" y="1279" type="line"/>
      <point x="578" y="374" type="line"/>
      <point x="494" y="135" type="line"/>
      <point x="452" y="435" type="line"/>
      <point x="323" y="1425" type="line"/>
      <point x="507" y="1441" type="line"/>
      <point x="515" y="1522" type="line"/>
      <point x="43" y="1522" type="line"/>
      <point x="34" y="1441" type="line"/>
      <point x="180" y="1421" type="line"/>
    </contour>
    <contour>
      <point x="822" y="-170" type="move" name="btm"/>
    </contour>
    <contour>
      <point x="1042" y="1700" type="move" name="top"/>
    </contour>
  </outline>
</glyph>
<glyph name="a" format="1">
  <advance width="1173"/>
  <unicode hex="0061"/>
  <outline>
    <contour>
      <point x="88" y="412" type="curve" smooth="yes"/>
      <point x="88" y="162"/>
      <point x="180" y="-20"/>
      <point x="406" y="-20" type="curve" smooth="yes"/>
      <point x="553" y="-20"/>
      <point x="687" y="100"/>
      <point x="764" y="204" type="curve"/>
      <point x="762" y="191" type="line"/>
      <point x="752" y="117" type="line"/>
      <point x="745" y="17"/>
      <point x="792" y="-20"/>
      <point x="867" y="-20" type="curve" smooth="yes"/>
      <point x="969" y="-20"/>
      <point x="1050" y="77"/>
      <point x="1062" y="100" type="curve"/>
      <point x="1035" y="144" type="line"/>
      <point x="998" y="109"/>
      <point x="972" y="85"/>
      <point x="944" y="85" type="curve" smooth="yes"/>
      <point x="925" y="85"/>
      <point x="895" y="104"/>
      <point x="905" y="173" type="curve"/>
      <point x="1039" y="1162" type="line"/>
      <point x="927" y="1128" type="line"/>
      <point x="925" y="1126" type="line"/>
      <point x="869" y="1146"/>
      <point x="793" y="1163"/>
      <point x="728" y="1163" type="curve" smooth="yes"/>
      <point x="319" y="1163"/>
      <point x="88" y="721"/>
    </contour>
    <contour>
      <point x="826" y="319" type="curve"/>
      <point x="808" y="387" type="line"/>
      <point x="768" y="304"/>
      <point x="603" y="94"/>
      <point x="433" y="94" type="curve" smooth="yes"/>
      <point x="300" y="94"/>
      <point x="244" y="226"/>
      <point x="244" y="431" type="curve" smooth="yes"/>
      <point x="244" y="702"/>
      <point x="403" y="1064"/>
      <point x="705" y="1064" type="curve" smooth="yes"/>
      <point x="764" y="1064"/>
      <point x="826" y="1051"/>
      <point x="871" y="1017" type="curve"/>
      <point x="782" y="342" type="line"/>
      <point x="764" y="204" type="line"/>
      <point x="796" y="249"/>
      <point x="818" y="290"/>
    </contour>
    <contour>
      <point x="1074" y="1660" type="move" name="caron"/>
    </contour>
    <contour>
      <point x="728" y="1255" type="move" name="top"/>
    </contour>
  </outline>
</glyph>
<glyph name="b" format="1">
  <advance width="1176"/>
  <unicode hex="0062"/>
  <outline>
    <contour>
      <point x="131" y="-5" type="line"/>
      <point x="208" y="32" type="line"/>
      <point x="264" y="6"/>
      <point x="369" y="-20"/>
      <point x="454" y="-20" type="curve" smooth="yes"/>
      <point x="859" y="-20"/>
      <point x="1087" y="421"/>
      <point x="1087" y="730" type="curve" smooth="yes"/>
      <point x="1087" y="980"/>
      <point x="978" y="1163"/>
      <point x="747" y="1163" type="curve" smooth="yes"/>
      <point x="598" y="1163"/>
      <point x="476" y="1064"/>
      <point x="411" y="973" type="curve"/>
      <point x="499" y="1627" type="line"/>
      <point x="458" y="1650" type="line"/>
      <point x="254" y="1618" type="line"/>
      <point x="238" y="1550" type="line"/>
      <point x="334" y="1516" type="line"/>
    </contour>
    <contour>
      <point x="723" y="1048" type="curve" smooth="yes"/>
      <point x="856" y="1048"/>
      <point x="931" y="926"/>
      <point x="931" y="719" type="curve" smooth="yes"/>
      <point x="931" y="461"/>
      <point x="785" y="78"/>
      <point x="478" y="78" type="curve" smooth="yes"/>
      <point x="412" y="78"/>
      <point x="345" y="91"/>
      <point x="297" y="130" type="curve"/>
      <point x="392" y="833" type="line"/>
      <point x="443" y="919"/>
      <point x="573" y="1048"/>
    </contour>
    <contour>
      <point x="850" y="1255" type="move" name="top"/>
    </contour>
  </outline>
</glyph>
<glyph name="e" format="1">
  <advance width="1051"/>
  <unicode hex="0065"/>
  <outline>
    <contour>
      <point x="92" y="437" type="curve" smooth="yes"/>
      <point x="86" y="211"/>
      <point x="197" y="-20"/>
      <point x="486" y="-20" type="curve" smooth="yes"/>
      <point x="680" y="-20"/>
      <point x="844" y="107"/>
      <point x="901" y="186" type="curve"/>
      <point x="864" y="254" type="line"/>
      <point x="749" y="139"/>
      <point x="613" y="92"/>
      <point x="504" y="92" type="curve" smooth="yes"/>
      <point x="293" y="92"/>
      <point x="237" y="312"/>
      <point x="251" y="467" type="curve"/>
      <point x="451" y="472"/>
      <point x="957" y="599"/>
      <point x="957" y="913" type="curve" smooth="yes"/>
      <point x="957" y="1054"/>
      <point x="866" y="1163"/>
      <point x="676" y="1163" type="curve" smooth="yes"/>
      <point x="348" y="1163"/>
      <point x="102" y="816"/>
    </contour>
    <contour>
      <point x="255" y="557" type="curve"/>
      <point x="276" y="770"/>
      <point x="416" y="1069"/>
      <point x="641" y="1069" type="curve" smooth="yes"/>
      <point x="740" y="1069"/>
      <point x="802" y="1012"/>
      <point x="802" y="900" type="curve" smooth="yes"/>
      <point x="802" y="687"/>
      <point x="481" y="564"/>
    </contour>
    <contour>
      <point x="774" y="63" type="move" name="btm"/>
    </contour>
    <contour>
      <point x="649" y="1255" type="move" name="top"/>
    </contour>
  </outline>
</glyph>
<glyph name="l" format="1">
  <advance width="606"/>
  <unicode hex="006C"/>
  <outline>
    <contour>
      <point x="152" y="102" type="curve" smooth="yes"/>
      <point x="150" y="15"/>
      <point x="184" y="-20"/>
      <point x="251" y="-20" type="curve" smooth="yes"/>
      <point x="361" y="-20"/>
      <point x="449" y="84"/>
      <point x="464" y="112" type="curve"/>
      <point x="439" y="155" type="line"/>
      <point x="389" y="102"/>
      <point x="357" y="85"/>
      <point x="328" y="85" type="curve" smooth="yes"/>
      <point x="309" y="85"/>
      <point x="294" y="110"/>
      <point x="301" y="158" type="curve" smooth="yes"/>
      <point x="507" y="1627" type="line"/>
      <point x="468" y="1650" type="line"/>
      <point x="246" y="1615" type="line"/>
      <point x="230" y="1548" type="line"/>
      <point x="348" y="1515" type="line"/>
      <point x="158" y="170" type="line" smooth="yes"/>
      <point x="155" y="150"/>
      <point x="152" y="116"/>
    </contour>
    <contour>
      <point x="591" y="1568" type="move" name="caron"/>
    </contour>
    <contour>
      <point x="203" y="-170" type="move" name="btm"/>
    </contour>
    <contour>
      <point x="313" y="1255" type="move" name="top"/>
    </contour>
    <contour>
      <point x="510" y="1881" type="move" name="cap"/>
    </contour>
  </outline>
</glyph>
<glyph name="p" format="1">
  <advance width="1155"/>
  <unicode hex="0070"/>
  <outline>
    <contour>
      <point x="433" y="-20" type="curve" smooth="yes"/>
      <point x="838" y="-20"/>
      <point x="1066" y="418"/>
      <point x="1066" y="730" type="curve" smooth="yes"/>
      <point x="1066" y="980"/>
      <point x="957" y="1163"/>
      <point x="726" y="1163" type="curve" smooth="yes"/>
      <point x="578" y="1163"/>
      <point x="461" y="1066"/>
      <point x="396" y="975" type="curve"/>
      <point x="415" y="1143" type="line"/>
      <point x="378" y="1163" type="line"/>
      <point x="163" y="1121" type="line"/>
      <point x="150" y="1057" type="line"/>
      <point x="258" y="1017" type="line"/>
      <point x="50" y="-520" type="line"/>
      <point x="195" y="-520" type="line"/>
      <point x="267" y="5" type="line"/>
      <point x="319" y="-9"/>
      <point x="380" y="-20"/>
    </contour>
    <contour>
      <point x="702" y="1048" type="curve" smooth="yes"/>
      <point x="827" y="1048"/>
      <point x="910" y="934"/>
      <point x="910" y="719" type="curve" smooth="yes"/>
      <point x="910" y="448"/>
      <point x="754" y="78"/>
      <point x="457" y="78" type="curve" smooth="yes"/>
      <point x="394" y="78"/>
      <point x="330" y="91"/>
      <point x="283" y="126" type="curve"/>
      <point x="382" y="845" type="line"/>
      <point x="438" y="932"/>
      <point x="562" y="1048"/>
    </contour>
    <contour>
      <point x="719" y="1255" type="move" name="top"/>
    </contour>
  </outline>
</glyph>
<glyph name="r" format="1">
  <advance width="836"/>
  <unicode hex="0072"/>
  <outline>
    <contour>
      <point x="138" y="0" type="line"/>
      <point x="286" y="0" type="line"/>
      <point x="375" y="711" type="line"/>
      <point x="451" y="904"/>
      <point x="604" y="997"/>
      <point x="722" y="997" type="curve" smooth="yes"/>
      <point x="768" y="997"/>
      <point x="799" y="993"/>
      <point x="818" y="983" type="curve"/>
      <point x="851" y="1149" type="line"/>
      <point x="838" y="1160"/>
      <point x="806" y="1162"/>
      <point x="786" y="1162" type="curve" smooth="yes"/>
      <point x="596" y="1162"/>
      <point x="442" y="981"/>
      <point x="396" y="875" type="curve"/>
      <point x="408" y="961" type="line"/>
      <point x="421" y="1140" type="line"/>
      <point x="385" y="1159" type="line"/>
      <point x="178" y="1116" type="line"/>
      <point x="164" y="1044" type="line"/>
      <point x="266" y="998" type="line"/>
    </contour>
    <contour>
      <point x="215" y="-170" type="move" name="btm"/>
    </contour>
    <contour>
      <point x="416" y="1255" type="move" name="top"/>
    </contour>
  </outline>
</glyph>
<glyph name="z" format="1">
  <advance width="1034"/>
  <unicode hex="007A"/>
  <outline>
    <contour>
      <point x="149" y="813" type="curve"/>
      <point x="215" y="813" type="line"/>
      <point x="221" y="912"/>
      <point x="266" y="1012"/>
      <point x="334" y="1016" type="curve"/>
      <point x="349" y="1024"/>
      <point x="752" y="1011"/>
      <point x="832" y="1010" type="curve"/>
      <point x="684" y="843" type="line"/>
      <point x="14" y="28" type="line"/>
      <point x="66" y="-22" type="line"/>
      <point x="75" y="-14" type="line"/>
      <point x="102" y="6"/>
      <point x="140" y="13"/>
      <point x="164" y="13" type="curve" smooth="yes"/>
      <point x="282" y="13"/>
      <point x="582" y="-22"/>
      <point x="729" y="-22" type="curve" smooth="yes"/>
      <point x="778" y="-22"/>
      <point x="812" y="-13"/>
      <point x="829" y="-2" type="curve" smooth="yes"/>
      <point x="886" y="36"/>
      <point x="912" y="195"/>
      <point x="920" y="315" type="curve"/>
      <point x="855" y="315" type="line"/>
      <point x="835" y="189"/>
      <point x="786" y="118"/>
      <point x="680" y="118" type="curve" smooth="yes"/>
      <point x="646" y="118"/>
      <point x="335" y="124"/>
      <point x="223" y="126" type="curve"/>
      <point x="545" y="480" type="line"/>
      <point x="1025" y="1112" type="line"/>
      <point x="981" y="1154" type="line"/>
      <point x="982" y="1158" type="line"/>
      <point x="949" y="1133"/>
      <point x="917" y="1129"/>
      <point x="887" y="1129" type="curve" smooth="yes"/>
      <point x="765" y="1129"/>
      <point x="459" y="1160"/>
      <point x="315" y="1160" type="curve" smooth="yes"/>
      <point x="264" y="1160"/>
      <point x="242" y="1151"/>
      <point x="225" y="1139" type="curve" smooth="yes"/>
      <point x="168" y="1099"/>
      <point x="147" y="899"/>
    </contour>
    <contour>
      <point x="614" y="1255" type="move" name="top"/>
    </contour>
  </outline>
</glyph>
<glyph name="cent" format="1">
  <advance width="1056"/>
  <unicode hex="00A2"/>
  <outline>
    <contour>
      <point x="384" y="-215" type="line"/>
      <point x="499" y="-215" type="line"/>
      <point x="535" y="-18" type="line"/>
      <point x="703" y="-3"/>
      <point x="811" y="99"/>
      <point x="858" y="151" type="curve"/>
      <point x="827" y="217" type="line"/>
      <point x="732" y="144"/>
      <point x="658" y="92"/>
      <point x="537" y="92" type="curve" smooth="yes"/>
      <point x="386" y="92"/>
      <point x="294" y="213"/>
      <point x="294" y="453" type="curve" smooth="yes"/>
      <point x="294" y="803"/>
      <point x="445" y="1045"/>
      <point x="684" y="1045" type="curve" smooth="yes"/>
      <point x="748" y="1045"/>
      <point x="818" y="1016"/>
      <point x="874" y="976" type="curve" smooth="yes"/>
      <point x="881" y="971"/>
      <point x="888" y="966"/>
      <point x="895" y="960" type="curve"/>
      <point x="939" y="1115" type="line"/>
      <point x="887" y="1141"/>
      <point x="808" y="1159"/>
      <point x="741" y="1162" type="curve"/>
      <point x="788" y="1358" type="line"/>
      <point x="672" y="1358" type="line"/>
      <point x="624" y="1153" type="line"/>
      <point x="305" y="1090"/>
      <point x="135" y="713"/>
      <point x="135" y="430" type="curve" smooth="yes"/>
      <point x="135" y="183"/>
      <point x="239" y="21"/>
      <point x="421" y="-13" type="curve"/>
    </contour>
  </outline>
</glyph>
<glyph name="ordfeminine" format="1">
  <advance width="854"/>
  <unicode hex="00AA"/>
  <outline>
    <contour>
      <point x="341" y="743" type="curve" smooth="yes"/>
      <point x="473" y="743"/>
      <point x="554" y="820"/>
      <point x="606" y="884" type="curve"/>
      <point x="586" y="797"/>
      <point x="626" y="743"/>
      <point x="684" y="743" type="curve" smooth="yes"/>
      <point x="753" y="743"/>
      <point x="836" y="803"/>
      <point x="845" y="818" type="curve"/>
      <point x="826" y="851" type="line"/>
      <point x="793" y="828"/>
      <point x="771" y="820"/>
      <point x="756" y="820" type="curve" smooth="yes"/>
      <point x="732" y="820"/>
      <point x="729" y="853"/>
      <point x="736" y="902" type="curve"/>
      <point x="860" y="1579" type="line"/>
      <point x="780" y="1548" type="line"/>
      <point x="736" y="1563"/>
      <point x="666" y="1577"/>
      <point x="606" y="1577" type="curve" smooth="yes"/>
      <point x="315" y="1576"/>
      <point x="95" y="1294"/>
      <point x="95" y="1040" type="curve" smooth="yes"/>
      <point x="95" y="857"/>
      <point x="183" y="743"/>
    </contour>
    <contour>
      <point x="401" y="838" type="curve" smooth="yes"/>
      <point x="285" y="838"/>
      <point x="235" y="920"/>
      <point x="235" y="1052" type="curve" smooth="yes"/>
      <point x="235" y="1262"/>
      <point x="364" y="1495"/>
      <point x="588" y="1495" type="curve" smooth="yes"/>
      <point x="623" y="1495"/>
      <point x="672" y="1474"/>
      <point x="700" y="1441" type="curve"/>
      <point x="610" y="951" type="line"/>
      <point x="558" y="900"/>
      <point x="478" y="838"/>
    </contour>
  </outline>
</glyph>
<glyph name="Oslash" format="1">
  <advance width="1386"/>
  <unicode hex="00D8"/>
  <outline>
    <contour>
      <point x="116" y="621" type="curve" smooth="yes"/>
      <point x="119" y="420"/>
      <point x="174" y="242"/>
      <point x="281" y="126" type="curve"/>
      <point x="128" y="-130" type="line"/>
      <point x="200" y="-166" type="line"/>
      <point x="344" y="69" type="line"/>
      <point x="418" y="13"/>
      <point x="510" y="-18"/>
      <point x="619" y="-18" type="curve" smooth="yes"/>
      <point x="1017" y="-18"/>
      <point x="1315" y="380"/>
      <point x="1306" y="910" type="curve" smooth="yes"/>
      <point x="1302" y="1122"/>
      <point x="1241" y="1313"/>
      <point x="1117" y="1428" type="curve"/>
      <point x="1252" y="1658" type="line"/>
      <point x="1181" y="1693" type="line"/>
      <point x="1052" y="1478" type="line"/>
      <point x="985" y="1520"/>
      <point x="904" y="1544"/>
      <point x="809" y="1544" type="curve" smooth="yes"/>
      <point x="413" y="1544"/>
      <point x="109" y="1153"/>
    </contour>
    <contour>
      <point x="640" y="78" type="curve" smooth="yes"/>
      <point x="546" y="78"/>
      <point x="469" y="115"/>
      <point x="409" y="181" type="curve"/>
      <point x="1038" y="1309" type="line"/>
      <point x="1108" y="1210"/>
      <point x="1146" y="1062"/>
      <point x="1149" y="884" type="curve" smooth="yes"/>
      <point x="1158" y="418"/>
      <point x="934" y="78"/>
    </contour>
    <contour>
      <point x="269" y="644" type="curve" smooth="yes"/>
      <point x="263" y="1113"/>
      <point x="490" y="1443"/>
      <point x="784" y="1443" type="curve" smooth="yes"/>
      <point x="867" y="1443"/>
      <point x="935" y="1415"/>
      <point x="990" y="1364" type="curve"/>
      <point x="363" y="243" type="line"/>
      <point x="304" y="341"/>
      <point x="271" y="479"/>
    </contour>
  </outline>
</glyph>
<glyph name="Eogonek" format="1">
  <advance width="1217"/>
  <unicode hex="0118"/>
  <outline>
    <contour>
      <point x="26" y="0" type="line"/>
      <point x="885" y="0" type="line"/>
      <point x="814" y="-40"/>
      <point x="727" y="-85"/>
      <point x="664" y="-174" type="curve" smooth="yes"/>
      <point x="644" y="-203"/>
      <point x="631" y="-248"/>
      <point x="629" y="-287" type="curve" smooth="yes"/>
      <point x="627" y="-346"/>
      <point x="668" y="-416"/>
      <point x="775" y="-416" type="curve" smooth="yes"/>
      <point x="891" y="-416"/>
      <point x="973" y="-368"/>
      <point x="1025" y="-322" type="curve"/>
      <point x="1004" y="-245" type="line"/>
      <point x="955" y="-287"/>
      <point x="900" y="-313"/>
      <point x="845" y="-313" type="curve" smooth="yes"/>
      <point x="806" y="-313"/>
      <point x="774" y="-286"/>
      <point x="777" y="-226" type="curve"/>
      <point x="779" y="-148"/>
      <point x="880" y="-71"/>
      <point x="977" y="0" type="curve"/>
      <point x="1058" y="0" type="line"/>
      <point x="1147" y="316" type="line"/>
      <point x="1066" y="341" type="line"/>
      <point x="955" y="113" type="line"/>
      <point x="334" y="94" type="line"/>
      <point x="419" y="734" type="line"/>
      <point x="901" y="721" type="line"/>
      <point x="910" y="846" type="line"/>
      <point x="429" y="840" type="line"/>
      <point x="505" y="1435" type="line"/>
      <point x="1017" y="1424" type="line"/>
      <point x="1051" y="1212" type="line"/>
      <point x="1134" y="1212" type="line"/>
      <point x="1141" y="1522" type="line"/>
      <point x="223" y="1522" type="line"/>
      <point x="214" y="1441" type="line"/>
      <point x="350" y="1422" type="line"/>
      <point x="184" y="93" type="line"/>
      <point x="33" y="69" type="line"/>
    </contour>
  </outline>
</glyph>
<glyph name="Hbar" format="1">
  <advance width="1515"/>
  <unicode hex="0126"/>
  <outline>
    <contour>
      <point x="887" y="0" type="line"/>
      <point x="1350" y="0" type="line"/>
      <point x="1356" y="69" type="line"/>
      <point x="1202" y="95" type="line"/>
      <point x="1318" y="1026" type="line"/>
      <point x="1534" y="1026" type="line"/>
      <point x="1545" y="1130" type="line"/>
      <point x="1331" y="1130" type="line"/>
      <point x="1368" y="1422" type="line"/>
      <point x="1508" y="1441" type="line"/>
      <point x="1518" y="1522" type="line"/>
      <point x="1078" y="1522" type="line"/>
      <point x="1070" y="1441" type="line"/>
      <point x="1218" y="1422" type="line"/>
      <point x="1181" y="1130" type="line"/>
      <point x="457" y="1130" type="line"/>
      <point x="494" y="1422" type="line"/>
      <point x="644" y="1441" type="line"/>
      <point x="652" y="1522" type="line"/>
      <point x="217" y="1522" type="line"/>
      <point x="207" y="1441" type="line"/>
      <point x="343" y="1422" type="line"/>
      <point x="306" y="1130" type="line"/>
      <point x="96" y="1130" type="line"/>
      <point x="85" y="1026" type="line"/>
      <point x="293" y="1026" type="line"/>
      <point x="176" y="94" type="line"/>
      <point x="27" y="69" type="line"/>
      <point x="20" y="0" type="line"/>
      <point x="476" y="0" type="line"/>
      <point x="482" y="70" type="line"/>
      <point x="327" y="94" type="line"/>
      <point x="397" y="655" type="line"/>
      <point x="1122" y="655" type="line"/>
      <point x="1052" y="95" type="line"/>
      <point x="893" y="70" type="line"/>
    </contour>
    <contour>
      <point x="444" y="1026" type="line"/>
      <point x="1168" y="1026" type="line"/>
      <point x="1135" y="758" type="line"/>
      <point x="410" y="758" type="line"/>
    </contour>
    <contour>
      <point x="817" y="-168" type="move" name="btm"/>
    </contour>
    <contour>
      <point x="876" y="1700" type="move" name="top"/>
    </contour>
  </outline>
</glyph>
<glyph name="Iogonek" format="1">
  <advance width="690"/>
  <unicode hex="012E"/>
  <outline>
    <contour>
      <point x="47" y="0" type="line"/>
      <point x="225" y="0" type="line"/>
      <point x="153" y="-40"/>
      <point x="66" y="-85"/>
      <point x="4" y="-174" type="curve" smooth="yes"/>
      <point x="-17" y="-203"/>
      <point x="-30" y="-248"/>
      <point x="-32" y="-287" type="curve" smooth="yes"/>
      <point x="-34" y="-346"/>
      <point x="7" y="-416"/>
      <point x="114" y="-416" type="curve" smooth="yes"/>
      <point x="230" y="-416"/>
      <point x="312" y="-368"/>
      <point x="364" y="-322" type="curve"/>
      <point x="343" y="-245" type="line"/>
      <point x="294" y="-287"/>
      <point x="239" y="-313"/>
      <point x="184" y="-313" type="curve" smooth="yes"/>
      <point x="145" y="-313"/>
      <point x="114" y="-286"/>
      <point x="117" y="-226" type="curve"/>
      <point x="118" y="-148"/>
      <point x="219" y="-71"/>
      <point x="316" y="0" type="curve"/>
      <point x="503" y="0" type="line"/>
      <point x="509" y="70" type="line"/>
      <point x="354" y="94" type="line"/>
      <point x="521" y="1422" type="line"/>
      <point x="671" y="1441" type="line"/>
      <point x="679" y="1522" type="line"/>
      <point x="244" y="1522" type="line"/>
      <point x="234" y="1441" type="line"/>
      <point x="370" y="1422" type="line"/>
      <point x="203" y="94" type="line"/>
      <point x="54" y="69" type="line"/>
    </contour>
  </outline>
</glyph>
<glyph name="dotlessj" format="1">
  <advance width="647"/>
  <unicode hex="0237"/>
  <outline>
    <contour>
      <point x="-72" y="-518" type="curve" smooth="yes"/>
      <point x="157" y="-518"/>
      <point x="311" y="-341"/>
      <point x="352" y="2" type="curve" smooth="yes"/>
      <point x="486" y="1138" type="line"/>
      <point x="447" y="1159" type="line"/>
      <point x="191" y="1117" type="line"/>
      <point x="178" y="1052" type="line"/>
      <point x="318" y="1012" type="line"/>
      <point x="209" y="58" type="line" smooth="yes"/>
      <point x="178" y="-205"/>
      <point x="105" y="-432"/>
      <point x="-97" y="-432" type="curve" smooth="yes"/>
      <point x="-125" y="-432"/>
      <point x="-166" y="-424"/>
      <point x="-184" y="-415" type="curve"/>
      <point x="-212" y="-481" type="line"/>
      <point x="-190" y="-505"/>
      <point x="-136" y="-518"/>
    </contour>
  </outline>
</glyph>
<glyph name="breve" format="1">
  <advance width="717"/>
  <unicode hex="02D8"/>
  <outline>
    <contour>
      <point x="348" y="1304" type="curve" smooth="yes"/>
      <point x="516" y="1304"/>
      <point x="658" y="1469"/>
      <point x="674" y="1617" type="curve"/>
      <point x="676" y="1627"/>
      <point x="676" y="1638"/>
      <point x="676" y="1649" type="curve"/>
      <point x="597" y="1649" type="line"/>
      <point x="582" y="1569"/>
      <point x="500" y="1422"/>
      <point x="351" y="1422" type="curve" smooth="yes"/>
      <point x="217" y="1422"/>
      <point x="155" y="1527"/>
      <point x="144" y="1618" type="curve" smooth="yes"/>
      <point x="141" y="1648" type="line"/>
      <point x="60" y="1648" type="line"/>
      <point x="59" y="1643"/>
      <point x="59" y="1634"/>
      <point x="59" y="1628" type="curve" smooth="yes"/>
      <point x="59" y="1468"/>
      <point x="162" y="1304"/>
    </contour>
    <contour>
      <point x="350" y="1255" type="move" name="_top"/>
    </contour>
  </outline>
</glyph>
<glyph name="tilde" format="1">
  <advance width="816"/>
  <unicode hex="02DC"/>
  <outline>
    <contour>
      <point x="87" y="1388" type="line"/>
      <point x="124" y="1431"/>
      <point x="189" y="1493"/>
      <point x="250" y="1492" type="curve" smooth="yes"/>
      <point x="361" y="1491"/>
      <point x="365" y="1346"/>
      <point x="519" y="1346" type="curve" smooth="yes"/>
      <point x="625" y="1346"/>
      <point x="722" y="1425"/>
      <point x="755" y="1521" type="curve"/>
      <point x="709" y="1595" type="line"/>
      <point x="678" y="1550"/>
      <point x="628" y="1476"/>
      <point x="548" y="1476" type="curve" smooth="yes"/>
      <point x="450" y="1476"/>
      <point x="418" y="1622"/>
      <point x="289" y="1622" type="curve" smooth="yes"/>
      <point x="189" y="1622"/>
      <point x="92" y="1540"/>
      <point x="50" y="1457" type="curve"/>
    </contour>
    <contour>
      <point x="398" y="1255" type="move" name="_top"/>
    </contour>
  </outline>
</glyph>
<glyph name="afii10037" format="1">
  <advance width="1201"/>
  <unicode hex="0423"/>
  <outline>
    <contour>
      <point x="343" y="-22" type="curve" smooth="yes"/>
      <point x="547" y="-22"/>
      <point x="626" y="207"/>
      <point x="689" y="337" type="curve" smooth="yes"/>
      <point x="1213" y="1421" type="line"/>
      <point x="1323" y="1442" type="line"/>
      <point x="1332" y="1522" type="line"/>
      <point x="960" y="1522" type="line"/>
      <point x="951" y="1441" type="line"/>
      <point x="1096" y="1421" type="line"/>
      <point x="747" y="657" type="line"/>
      <point x="658" y="437" type="line"/>
      <point x="601" y="655" type="line"/>
      <point x="373" y="1422" type="line"/>
      <point x="536" y="1442" type="line"/>
      <point x="543" y="1522" type="line"/>
      <point x="107" y="1522" type="line"/>
      <point x="97" y="1441" type="line"/>
      <point x="221" y="1420" type="line"/>
      <point x="573" y="303" type="line"/>
      <point x="529" y="184"/>
      <point x="468" y="132"/>
      <point x="344" y="132" type="curve" smooth="yes"/>
      <point x="205" y="132" type="line"/>
      <point x="191" y="9" type="line"/>
      <point x="229" y="-10"/>
      <point x="284" y="-22"/>
    </contour>
    <contour>
      <point x="537" y="-170" type="move" name="btm"/>
    </contour>
    <contour>
      <point x="537" y="1700" type="move" name="top"/>
    </contour>
    <contour>
      <point x="528" y="1700" type="move" name="top"/>
    </contour>
  </outline>
</glyph>
<glyph name="afii10044" format="1">
  <advance width="1516"/>
  <unicode hex="042A"/>
  <outline>
    <contour>
      <point x="584" y="0" type="line" smooth="yes"/>
      <point x="665" y="0"/>
      <point x="863" y="-16"/>
      <point x="909" y="-16" type="curve" smooth="yes"/>
      <point x="1258" y="-16"/>
      <point x="1489" y="229"/>
      <point x="1489" y="553" type="curve" smooth="yes"/>
      <point x="1489" y="791"/>
      <point x="1337" y="931"/>
      <point x="1052" y="931" type="curve" smooth="yes"/>
      <point x="953" y="931"/>
      <point x="821" y="909"/>
      <point x="772" y="896" type="curve"/>
      <point x="837" y="1420" type="line"/>
      <point x="1038" y="1441" type="line"/>
      <point x="1046" y="1522" type="line"/>
      <point x="220" y="1522" type="line"/>
      <point x="139" y="1056" type="line"/>
      <point x="237" y="1056" type="line"/>
      <point x="332" y="1428" type="line"/>
      <point x="688" y="1433" type="line"/>
      <point x="520" y="95" type="line"/>
      <point x="355" y="69" type="line"/>
      <point x="347" y="0" type="line"/>
    </contour>
    <contour>
      <point x="1004" y="829" type="curve" smooth="yes"/>
      <point x="1211" y="829"/>
      <point x="1338" y="729"/>
      <point x="1338" y="530" type="curve" smooth="yes"/>
      <point x="1338" y="272"/>
      <point x="1181" y="73"/>
      <point x="905" y="73" type="curve" smooth="yes"/>
      <point x="796" y="73"/>
      <point x="722" y="84"/>
      <point x="673" y="92" type="curve"/>
      <point x="761" y="802" type="line"/>
      <point x="809" y="814"/>
      <point x="921" y="829"/>
    </contour>
    <contour>
      <point x="623" y="-170" type="move" name="btm"/>
    </contour>
    <contour>
      <point x="623" y="1700" type="move" name="top"/>
    </contour>
    <contour>
      <point x="709" y="1700" type="move" name="top"/>
    </contour>
  </outline>
</glyph>
<glyph name="afii10068" format="1">
  <advance width="838"/>
  <unicode hex="0433"/>
  <outline>
    <contour>
      <point x="665" y="192" type="line"/>
      <point x="588" y="134"/>
      <point x="517" y="88"/>
      <point x="396" y="88" type="curve" smooth="yes"/>
      <point x="263" y="88"/>
      <point x="203" y="171"/>
      <point x="203" y="264" type="curve" smooth="yes"/>
      <point x="203" y="389"/>
      <point x="310" y="450"/>
      <point x="438" y="538" type="curve" smooth="yes"/>
      <point x="576" y="632"/>
      <point x="783" y="722"/>
      <point x="783" y="937" type="curve" smooth="yes"/>
      <point x="783" y="1077"/>
      <point x="661" y="1161"/>
      <point x="495" y="1161" type="curve" smooth="yes"/>
      <point x="337" y="1161"/>
      <point x="226" y="1089"/>
      <point x="182" y="1054" type="curve"/>
      <point x="200" y="974" type="line"/>
      <point x="224" y="997"/>
      <point x="337" y="1058"/>
      <point x="468" y="1058" type="curve" smooth="yes"/>
      <point x="561" y="1058"/>
      <point x="621" y="996"/>
      <point x="621" y="923" type="curve" smooth="yes"/>
      <point x="621" y="805"/>
      <point x="529" y="730"/>
      <point x="382" y="637" type="curve" smooth="yes"/>
      <point x="221" y="534"/>
      <point x="49" y="446"/>
      <point x="49" y="244" type="curve" smooth="yes"/>
      <point x="49" y="102"/>
      <point x="174" y="-20"/>
      <point x="346" y="-20" type="curve" smooth="yes"/>
      <point x="467" y="-20"/>
      <point x="618" y="34"/>
      <point x="689" y="115" type="curve"/>
    </contour>
    <contour>
      <point x="356" y="-170" type="move" name="btm"/>
    </contour>
    <contour>
      <point x="507" y="1700" type="move" name="top"/>
    </contour>
    <contour>
      <point x="493" y="1700" type="move" name="top"/>
    </contour>
  </outline>
</glyph>
<glyph name="afii10096" format="1">
  <advance width="1686"/>
  <unicode hex="044E"/>
  <outline>
    <contour>
      <point x="630" y="439" type="curve" smooth="yes"/>
      <point x="634" y="148"/>
      <point x="775" y="-20"/>
      <point x="1027" y="-20" type="curve" smooth="yes"/>
      <point x="1364" y="-20"/>
      <point x="1596" y="344"/>
      <point x="1592" y="703" type="curve" smooth="yes"/>
      <point x="1588" y="993"/>
      <point x="1449" y="1163"/>
      <point x="1196" y="1163" type="curve" smooth="yes"/>
      <point x="923" y="1163"/>
      <point x="718" y="926"/>
      <point x="652" y="643" type="curve"/>
      <point x="370" y="643" type="line"/>
      <point x="436" y="1142" type="line"/>
      <point x="392" y="1163" type="line"/>
      <point x="187" y="1121" type="line"/>
      <point x="173" y="1049" type="line"/>
      <point x="271" y="1002" type="line"/>
      <point x="137" y="0" type="line"/>
      <point x="285" y="0" type="line"/>
      <point x="357" y="547" type="line"/>
      <point x="636" y="547" type="line"/>
      <point x="632" y="511"/>
      <point x="629" y="475"/>
    </contour>
    <contour>
      <point x="1054" y="78" type="curve" smooth="yes"/>
      <point x="883" y="78"/>
      <point x="789" y="210"/>
      <point x="787" y="441" type="curve"/>
      <point x="783" y="714"/>
      <point x="912" y="1065"/>
      <point x="1169" y="1065" type="curve" smooth="yes"/>
      <point x="1344" y="1065"/>
      <point x="1431" y="927"/>
      <point x="1433" y="700" type="curve"/>
      <point x="1437" y="430"/>
      <point x="1306" y="78"/>
    </contour>
    <contour>
      <point x="886" y="1700" type="move" name="top"/>
    </contour>
  </outline>
</glyph>
<glyph name="afii10099" format="1">
  <advance width="1234"/>
  <unicode hex="0452"/>
  <outline>
    <contour>
      <point x="123" y="1299" type="line"/>
      <point x="294" y="1299" type="line"/>
      <point x="122" y="0" type="line"/>
      <point x="269" y="0" type="line"/>
      <point x="369" y="742" type="line"/>
      <point x="476" y="901"/>
      <point x="647" y="1036"/>
      <point x="774" y="1036" type="curve" smooth="yes"/>
      <point x="874" y="1036"/>
      <point x="909" y="989"/>
      <point x="911" y="873" type="curve" smooth="yes"/>
      <point x="911" y="845"/>
      <point x="825" y="51"/>
      <point x="824" y="43" type="curve" smooth="yes"/>
      <point x="797" y="-184"/>
      <point x="741" y="-366"/>
      <point x="598" y="-398" type="curve"/>
      <point x="560" y="-408"/>
      <point x="516" y="-413"/>
      <point x="484" y="-407" type="curve"/>
      <point x="480" y="-488" type="line"/>
      <point x="491" y="-498"/>
      <point x="543" y="-502"/>
      <point x="582" y="-502" type="curve" smooth="yes"/>
      <point x="790" y="-502"/>
      <point x="918" y="-326"/>
      <point x="960" y="19" type="curve" smooth="yes"/>
      <point x="961" y="28"/>
      <point x="1063" y="852"/>
      <point x="1063" y="891" type="curve" smooth="yes"/>
      <point x="1062" y="1063"/>
      <point x="996" y="1163"/>
      <point x="838" y="1163" type="curve" smooth="yes"/>
      <point x="668" y="1163"/>
      <point x="496" y="1025"/>
      <point x="386" y="870" type="curve"/>
      <point x="444" y="1299" type="line"/>
      <point x="781" y="1299" type="line"/>
      <point x="793" y="1386" type="line"/>
      <point x="455" y="1386" type="line"/>
      <point x="488" y="1627" type="line"/>
      <point x="447" y="1650" type="line"/>
      <point x="221" y="1615" type="line"/>
      <point x="208" y="1548" type="line"/>
      <point x="323" y="1515" type="line"/>
      <point x="306" y="1386" type="line"/>
      <point x="135" y="1386" type="line"/>
    </contour>
    <contour>
      <point x="572" y="1700" type="move" name="top"/>
    </contour>
  </outline>
</glyph>
<glyph name="afii10101" format="1">
  <advance width="1028"/>
  <unicode hex="0454"/>
  <outline>
    <contour>
      <point x="527" y="-23" type="curve" smooth="yes"/>
      <point x="688" y="-23"/>
      <point x="822" y="22"/>
      <point x="900" y="78" type="curve"/>
      <point x="927" y="282" type="line"/>
      <point x="841" y="282" type="line"/>
      <point x="795" y="112" type="line"/>
      <point x="738" y="88"/>
      <point x="629" y="71"/>
      <point x="544" y="71" type="curve" smooth="yes"/>
      <point x="367" y="71"/>
      <point x="233" y="195"/>
      <point x="233" y="462" type="curve" smooth="yes"/>
      <point x="233" y="492"/>
      <point x="234" y="522"/>
      <point x="237" y="553" type="curve"/>
      <point x="419" y="535"/>
      <point x="724" y="530"/>
      <point x="798" y="526" type="curve"/>
      <point x="823" y="661" type="line"/>
      <point x="797" y="661"/>
      <point x="419" y="660"/>
      <point x="254" y="660" type="curve"/>
      <point x="304" y="885"/>
      <point x="441" y="1082"/>
      <point x="676" y="1082" type="curve" smooth="yes"/>
      <point x="785" y="1082"/>
      <point x="850" y="1058"/>
      <point x="894" y="1018" type="curve"/>
      <point x="912" y="862" type="line"/>
      <point x="990" y="862" type="line"/>
      <point x="1020" y="1108" type="line"/>
      <point x="962" y="1145"/>
      <point x="839" y="1172"/>
      <point x="702" y="1172" type="curve" smooth="yes"/>
      <point x="351" y="1172"/>
      <point x="77" y="853"/>
      <point x="77" y="454" type="curve" smooth="yes"/>
      <point x="77" y="154"/>
      <point x="229" y="-23"/>
    </contour>
    <contour>
      <point x="460" y="-170" type="move" name="btm"/>
    </contour>
    <contour>
      <point x="469" y="1700" type="move" name="top"/>
    </contour>
    <contour>
      <point x="454" y="1700" type="move" name="top"/>
    </contour>
  </outline>
</glyph>
<glyph name="afii10194" format="1">
  <advance width="1744"/>
  <unicode hex="0463"/>
  <outline>
    <contour>
      <point x="871" y="428" type="curve"/>
      <point x="824" y="148"/>
      <point x="970" y="-23"/>
      <point x="1179" y="-23" type="curve" smooth="yes"/>
      <point x="1466" y="-23"/>
      <point x="1670" y="245"/>
      <point x="1670" y="441" type="curve" smooth="yes"/>
      <point x="1670" y="615"/>
      <point x="1600" y="748"/>
      <point x="1421" y="748" type="curve" smooth="yes"/>
      <point x="1229" y="748"/>
      <point x="1067" y="607"/>
      <point x="1035" y="554" type="curve"/>
      <point x="1055" y="667"/>
      <point x="1077" y="798"/>
      <point x="1077" y="868" type="curve" smooth="yes"/>
      <point x="1077" y="1089"/>
      <point x="990" y="1163"/>
      <point x="849" y="1163" type="curve" smooth="yes"/>
      <point x="687" y="1163"/>
      <point x="514" y="1032"/>
      <point x="402" y="882" type="curve"/>
      <point x="430" y="1143" type="line"/>
      <point x="392" y="1163" type="line"/>
      <point x="187" y="1121" type="line"/>
      <point x="173" y="1049" type="line"/>
      <point x="271" y="1002" type="line"/>
      <point x="137" y="0" type="line"/>
      <point x="285" y="0" type="line"/>
      <point x="384" y="745" type="line"/>
      <point x="490" y="902"/>
      <point x="661" y="1037"/>
      <point x="784" y="1037" type="curve" smooth="yes"/>
      <point x="889" y="1037"/>
      <point x="925" y="996"/>
      <point x="925" y="859" type="curve" smooth="yes"/>
      <point x="925" y="734"/>
      <point x="890" y="549"/>
    </contour>
    <contour>
      <point x="1013" y="403" type="line"/>
      <point x="1057" y="523"/>
      <point x="1223" y="637"/>
      <point x="1350" y="637" type="curve" smooth="yes"/>
      <point x="1500" y="637"/>
      <point x="1523" y="536"/>
      <point x="1523" y="422" type="curve" smooth="yes"/>
      <point x="1523" y="258"/>
      <point x="1386" y="67"/>
      <point x="1193" y="67" type="curve" smooth="yes"/>
      <point x="1030" y="67"/>
      <point x="981" y="226"/>
      <point x="1011" y="409" type="curve"/>
    </contour>
    <contour>
      <point x="804" y="-170" type="move" name="btm"/>
    </contour>
    <contour>
      <point x="804" y="1700" type="move" name="top"/>
    </contour>
    <contour>
      <point x="733" y="1700" type="move" name="top"/>
    </contour>
  </outline>
</glyph>
<glyph name="uni048B" format="1">
  <advance width="1202"/>
  <unicode hex="048B"/>
  <outline>
    <contour>
      <point x="165" y="254" type="curve" smooth="yes"/>
      <point x="165" y="44"/>
      <point x="260" y="-20"/>
      <point x="409" y="-20" type="curve" smooth="yes"/>
      <point x="572" y="-20"/>
      <point x="705" y="90"/>
      <point x="790" y="196" type="curve"/>
      <point x="787" y="165"/>
      <point x="785" y="130"/>
      <point x="783" y="119" type="curve" smooth="yes"/>
      <point x="771" y="55"/>
      <point x="787" y="10"/>
      <point x="826" y="-8" type="curve"/>
      <point x="781" y="-43"/>
      <point x="743" y="-90"/>
      <point x="743" y="-149" type="curve" smooth="yes"/>
      <point x="743" y="-216"/>
      <point x="769" y="-238"/>
      <point x="769" y="-289" type="curve" smooth="yes"/>
      <point x="769" y="-357"/>
      <point x="694" y="-413"/>
      <point x="634" y="-433" type="curve"/>
      <point x="677" y="-484" type="line"/>
      <point x="788" y="-458"/>
      <point x="912" y="-364"/>
      <point x="912" y="-263" type="curve" smooth="yes"/>
      <point x="912" y="-199"/>
      <point x="874" y="-144"/>
      <point x="874" y="-103" type="curve" smooth="yes"/>
      <point x="874" y="-32"/>
      <point x="951" y="-9"/>
      <point x="990" y="17" type="curve"/>
      <point x="989" y="18" type="line"/>
      <point x="1044" y="51"/>
      <point x="1083" y="96"/>
      <point x="1094" y="113" type="curve"/>
      <point x="1069" y="158" type="line"/>
      <point x="1019" y="106"/>
      <point x="985" y="87"/>
      <point x="956" y="87" type="curve" smooth="yes"/>
      <point x="937" y="87"/>
      <point x="925" y="108"/>
      <point x="932" y="159" type="curve" smooth="yes"/>
      <point x="1062" y="1151" type="line"/>
      <point x="915" y="1151" type="line"/>
      <point x="910" y="1114"/>
      <point x="837" y="542"/>
      <point x="806" y="314" type="curve"/>
      <point x="731" y="204"/>
      <point x="590" y="90"/>
      <point x="472" y="90" type="curve" smooth="yes"/>
      <point x="377" y="90"/>
      <point x="314" y="123"/>
      <point x="314" y="279" type="curve" smooth="yes"/>
      <point x="314" y="385"/>
      <point x="331" y="479"/>
      <point x="347" y="599" type="curve"/>
      <point x="415" y="1138" type="line"/>
      <point x="376" y="1159" type="line"/>
      <point x="171" y="1116" type="line"/>
      <point x="158" y="1045" type="line"/>
      <point x="255" y="998" type="line"/>
      <point x="201" y="606" type="line" smooth="yes"/>
      <point x="185" y="488"/>
      <point x="165" y="346"/>
    </contour>
    <contour>
      <point x="681" y="1294" type="curve" smooth="yes"/>
      <point x="877" y="1294"/>
      <point x="1034" y="1388"/>
      <point x="1060" y="1607" type="curve" smooth="yes"/>
      <point x="1061" y="1618"/>
      <point x="1062" y="1629"/>
      <point x="1062" y="1640" type="curve"/>
      <point x="954" y="1640" type="line" smooth="yes"/>
      <point x="929" y="1640"/>
      <point x="921" y="1605"/>
      <point x="917" y="1571" type="curve" smooth="yes"/>
      <point x="903" y="1447"/>
      <point x="842" y="1374"/>
      <point x="692" y="1374" type="curve" smooth="yes"/>
      <point x="546" y="1374"/>
      <point x="489" y="1427"/>
      <point x="489" y="1524" type="curve" smooth="yes"/>
      <point x="489" y="1546"/>
      <point x="493" y="1573"/>
      <point x="494" y="1597" type="curve" smooth="yes"/>
      <point x="494" y="1619"/>
      <point x="491" y="1640"/>
      <point x="474" y="1640" type="curve" smooth="yes"/>
      <point x="342" y="1640" type="line"/>
      <point x="335" y="1616"/>
      <point x="334" y="1593"/>
      <point x="334" y="1570" type="curve"/>
      <point x="328" y="1379"/>
      <point x="488" y="1294"/>
    </contour>
    <contour>
      <point x="731" y="1700" type="move" name="top"/>
    </contour>
  </outline>
</glyph>
<glyph name="uni04A3" format="1">
  <advance width="1303"/>
  <unicode hex="04A3"/>
  <outline>
    <contour>
      <point x="956" y="634" type="curve"/>
      <point x="368" y="634" type="line"/>
      <point x="435" y="1137" type="line"/>
      <point x="391" y="1159" type="line"/>
      <point x="186" y="1116" type="line"/>
      <point x="173" y="1044" type="line"/>
      <point x="271" y="998" type="line"/>
      <point x="137" y="0" type="line"/>
      <point x="285" y="0" type="line"/>
      <point x="356" y="538" type="line"/>
      <point x="945" y="538" type="line"/>
      <point x="885" y="99" type="line"/>
      <point x="876" y="38"/>
      <point x="898" y="3"/>
      <point x="934" y="-12" type="curve"/>
      <point x="892" y="-45"/>
      <point x="859" y="-89"/>
      <point x="859" y="-145" type="curve" smooth="yes"/>
      <point x="859" y="-213"/>
      <point x="885" y="-239"/>
      <point x="885" y="-289" type="curve" smooth="yes"/>
      <point x="885" y="-357"/>
      <point x="810" y="-413"/>
      <point x="751" y="-433" type="curve"/>
      <point x="793" y="-484" type="line"/>
      <point x="905" y="-458"/>
      <point x="1028" y="-364"/>
      <point x="1028" y="-263" type="curve" smooth="yes"/>
      <point x="1028" y="-200"/>
      <point x="990" y="-148"/>
      <point x="990" y="-99" type="curve" smooth="yes"/>
      <point x="990" y="-30"/>
      <point x="1064" y="-10"/>
      <point x="1103" y="15" type="curve" smooth="yes"/>
      <point x="1150" y="44"/>
      <point x="1184" y="81"/>
      <point x="1193" y="95" type="curve"/>
      <point x="1167" y="139" type="line"/>
      <point x="1128" y="101"/>
      <point x="1095" y="85"/>
      <point x="1069" y="85" type="curve" smooth="yes"/>
      <point x="1052" y="85"/>
      <point x="1040" y="109"/>
      <point x="1046" y="157" type="curve" smooth="yes"/>
      <point x="1164" y="1135" type="line"/>
      <point x="1019" y="1135" type="line"/>
      <point x="1014" y="1101"/>
      <point x="963" y="678"/>
    </contour>
    <contour>
      <point x="825" y="-170" type="move" name="btm"/>
    </contour>
    <contour>
      <point x="825" y="1700" type="move" name="top"/>
    </contour>
    <contour>
      <point x="736" y="1700" type="move" name="top"/>
    </contour>
  </outline>
</glyph>
<glyph name="uni04A7" format="1">
  <advance width="1665"/>
  <unicode hex="04A7"/>
  <outline>
    <contour>
      <point x="137" y="0" type="line"/>
      <point x="285" y="0" type="line"/>
      <point x="384" y="745" type="line"/>
      <point x="490" y="902"/>
      <point x="661" y="1037"/>
      <point x="784" y="1037" type="curve" smooth="yes"/>
      <point x="889" y="1037"/>
      <point x="925" y="996"/>
      <point x="925" y="859" type="curve" smooth="yes"/>
      <point x="925" y="767"/>
      <point x="905" y="607"/>
      <point x="881" y="443" type="curve" smooth="yes"/>
      <point x="861" y="304"/>
      <point x="832" y="120"/>
      <point x="810" y="0" type="curve"/>
      <point x="961" y="0" type="line"/>
      <point x="975" y="86"/>
      <point x="991" y="196"/>
      <point x="1006" y="299" type="curve"/>
      <point x="1094" y="382"/>
      <point x="1190" y="453"/>
      <point x="1290" y="453" type="curve" smooth="yes"/>
      <point x="1425" y="453"/>
      <point x="1451" y="342"/>
      <point x="1451" y="200" type="curve" smooth="yes"/>
      <point x="1451" y="-42"/>
      <point x="1311" y="-343"/>
      <point x="1082" y="-343" type="curve" smooth="yes"/>
      <point x="1073" y="-343"/>
      <point x="1064" y="-342"/>
      <point x="1058" y="-341" type="curve"/>
      <point x="1053" y="-416" type="line"/>
      <point x="1069" y="-420"/>
      <point x="1091" y="-422"/>
      <point x="1119" y="-422" type="curve" smooth="yes"/>
      <point x="1407" y="-422"/>
      <point x="1614" y="-28"/>
      <point x="1614" y="237" type="curve" smooth="yes"/>
      <point x="1614" y="401"/>
      <point x="1577" y="558"/>
      <point x="1353" y="558" type="curve" smooth="yes"/>
      <point x="1213" y="558"/>
      <point x="1097" y="474"/>
      <point x="1019" y="394" type="curve"/>
      <point x="1027" y="445" type="line" smooth="yes"/>
      <point x="1053" y="627"/>
      <point x="1077" y="800"/>
      <point x="1077" y="868" type="curve" smooth="yes"/>
      <point x="1077" y="1089"/>
      <point x="990" y="1163"/>
      <point x="849" y="1163" type="curve" smooth="yes"/>
      <point x="687" y="1163"/>
      <point x="514" y="1032"/>
      <point x="402" y="882" type="curve"/>
      <point x="430" y="1143" type="line"/>
      <point x="392" y="1163" type="line"/>
      <point x="187" y="1121" type="line"/>
      <point x="173" y="1049" type="line"/>
      <point x="271" y="1002" type="line"/>
    </contour>
    <contour>
      <point x="888" y="-170" type="move" name="btm"/>
    </contour>
    <contour>
      <point x="888" y="1700" type="move" name="top"/>
    </contour>
    <contour>
      <point x="706" y="1700" type="move" name="top"/>
    </contour>
  </outline>
</glyph>
<glyph name="uni04B4" format="1">
  <advance width="1839"/>
  <unicode hex="04B4"/>
  <outline>
    <contour>
      <point x="256" y="0" type="line"/>
      <point x="1548" y="0" type="line"/>
      <point x="1556" y="-70"/>
      <point x="1533" y="-239"/>
      <point x="1528" y="-340" type="curve"/>
      <point x="1623" y="-340" type="line"/>
      <point x="1639" y="-258"/>
      <point x="1693" y="0"/>
      <point x="1709" y="103" type="curve"/>
      <point x="1459" y="104" type="line"/>
      <point x="1621" y="1419" type="line"/>
      <point x="1800" y="1442" type="line"/>
      <point x="1809" y="1522" type="line"/>
      <point x="1327" y="1522" type="line"/>
      <point x="1318" y="1442" type="line"/>
      <point x="1481" y="1419" type="line"/>
      <point x="1319" y="98" type="line"/>
      <point x="554" y="98" type="line"/>
      <point x="716" y="1421" type="line"/>
      <point x="984" y="1420" type="line"/>
      <point x="984" y="1056" type="line"/>
      <point x="1078" y="1056" type="line"/>
      <point x="1120" y="1522" type="line"/>
      <point x="195" y="1522" type="line"/>
      <point x="109" y="1056" type="line"/>
      <point x="206" y="1056" type="line"/>
      <point x="307" y="1420" type="line"/>
      <point x="579" y="1421" type="line"/>
      <point x="414" y="95" type="line"/>
      <point x="264" y="69" type="line"/>
    </contour>
    <contour>
      <point x="810" y="-170" type="move" name="btm"/>
    </contour>
    <contour>
      <point x="810" y="1700" type="move" name="top"/>
    </contour>
    <contour>
      <point x="818" y="1700" type="move" name="top"/>
    </contour>
  </outline>
</glyph>
<glyph name="uni04CB" format="1">
  <advance width="1264"/>
  <unicode hex="04CB"/>
  <outline>
    <contour>
      <point x="369" y="1419" type="line"/>
      <point x="519" y="1441" type="line"/>
      <point x="527" y="1522" type="line"/>
      <point x="93" y="1522" type="line"/>
      <point x="84" y="1440" type="line"/>
      <point x="219" y="1421" type="line"/>
      <point x="170" y="1036" type="line"/>
      <point x="125" y="672"/>
      <point x="273" y="600"/>
      <point x="505" y="600" type="curve" smooth="yes"/>
      <point x="618" y="600"/>
      <point x="767" y="624"/>
      <point x="881" y="694" type="curve"/>
      <point x="806" y="94" type="line"/>
      <point x="613" y="94" type="line"/>
      <point x="558" y="-340" type="line"/>
      <point x="658" y="-340" type="line"/>
      <point x="671" y="-265"/>
      <point x="719" y="-71"/>
      <point x="743" y="0" type="curve"/>
      <point x="1111" y="0" type="line"/>
      <point x="1117" y="69" type="line"/>
      <point x="957" y="94" type="line"/>
      <point x="1123" y="1422" type="line"/>
      <point x="1260" y="1441" type="line"/>
      <point x="1269" y="1522" type="line"/>
      <point x="832" y="1522" type="line"/>
      <point x="823" y="1441" type="line"/>
      <point x="973" y="1422" type="line"/>
      <point x="893" y="789" type="line"/>
      <point x="817" y="741"/>
      <point x="675" y="713"/>
      <point x="573" y="713" type="curve" smooth="yes"/>
      <point x="317" y="713"/>
      <point x="295" y="819"/>
      <point x="334" y="1151" type="curve"/>
    </contour>
    <contour>
      <point x="644" y="-170" type="move" name="btm"/>
    </contour>
    <contour>
      <point x="644" y="1700" type="move" name="top"/>
    </contour>
  </outline>
</glyph>
<glyph name="uni04EA" format="1">
  <advance width="1382"/>
  <unicode hex="04EA"/>
  <outline>
    <contour>
      <point x="116" y="619" type="curve" smooth="yes"/>
      <point x="121" y="263"/>
      <point x="292" y="-20"/>
      <point x="619" y="-20" type="curve" smooth="yes"/>
      <point x="1017" y="-20"/>
      <point x="1315" y="378"/>
      <point x="1306" y="908" type="curve" smooth="yes"/>
      <point x="1300" y="1253"/>
      <point x="1141" y="1542"/>
      <point x="809" y="1542" type="curve" smooth="yes"/>
      <point x="413" y="1542"/>
      <point x="109" y="1151"/>
    </contour>
    <contour>
      <point x="640" y="76" type="curve" smooth="yes"/>
      <point x="409" y="76"/>
      <point x="273" y="301"/>
      <point x="269" y="642" type="curve"/>
      <point x="268" y="669"/>
      <point x="269" y="696"/>
      <point x="270" y="723" type="curve"/>
      <point x="1143" y="723" type="line"/>
      <point x="1104" y="340"/>
      <point x="899" y="76"/>
    </contour>
    <contour>
      <point x="784" y="1441" type="curve" smooth="yes"/>
      <point x="1021" y="1441"/>
      <point x="1143" y="1212"/>
      <point x="1149" y="882" type="curve" smooth="yes"/>
      <point x="1149" y="857"/>
      <point x="1149" y="833"/>
      <point x="1148" y="810" type="curve"/>
      <point x="277" y="810" type="line"/>
      <point x="320" y="1188"/>
      <point x="526" y="1441"/>
    </contour>
    <contour>
      <point x="1040" y="1742" type="curve" smooth="yes"/>
      <point x="1103" y="1742"/>
      <point x="1155" y="1799"/>
      <point x="1157" y="1868" type="curve" smooth="yes"/>
      <point x="1158" y="1923"/>
      <point x="1123" y="1963"/>
      <point x="1066" y="1963" type="curve" smooth="yes"/>
      <point x="1016" y="1963"/>
      <point x="955" y="1910"/>
      <point x="954" y="1842" type="curve"/>
      <point x="952" y="1783"/>
      <point x="991" y="1742"/>
    </contour>
    <contour>
      <point x="620" y="1742" type="curve" smooth="yes"/>
      <point x="681" y="1742"/>
      <point x="736" y="1798"/>
      <point x="737" y="1867" type="curve" smooth="yes"/>
      <point x="738" y="1922"/>
      <point x="703" y="1963"/>
      <point x="646" y="1963" type="curve" smooth="yes"/>
      <point x="593" y="1963"/>
      <point x="537" y="1907"/>
      <point x="535" y="1839" type="curve" smooth="yes"/>
      <point x="534" y="1783"/>
      <point x="573" y="1742"/>
    </contour>
  </outline>
</glyph>
<glyph name="uni04F7" format="1">
  <advance width="838"/>
  <unicode hex="04F7"/>
  <outline>
    <contour>
      <point x="665" y="192" type="line"/>
      <point x="588" y="134"/>
      <point x="517" y="88"/>
      <point x="396" y="88" type="curve" smooth="yes"/>
      <point x="263" y="88"/>
      <point x="203" y="171"/>
      <point x="203" y="264" type="curve" smooth="yes"/>
      <point x="203" y="389"/>
      <point x="310" y="450"/>
      <point x="438" y="538" type="curve" smooth="yes"/>
      <point x="576" y="632"/>
      <point x="783" y="722"/>
      <point x="783" y="937" type="curve" smooth="yes"/>
      <point x="783" y="1077"/>
      <point x="661" y="1161"/>
      <point x="495" y="1161" type="curve" smooth="yes"/>
      <point x="337" y="1161"/>
      <point x="226" y="1089"/>
      <point x="182" y="1054" type="curve"/>
      <point x="200" y="974" type="line"/>
      <point x="224" y="997"/>
      <point x="337" y="1058"/>
      <point x="468" y="1058" type="curve" smooth="yes"/>
      <point x="561" y="1058"/>
      <point x="621" y="996"/>
      <point x="621" y="923" type="curve" smooth="yes"/>
      <point x="621" y="805"/>
      <point x="529" y="730"/>
      <point x="382" y="637" type="curve" smooth="yes"/>
      <point x="221" y="534"/>
      <point x="49" y="446"/>
      <point x="49" y="244" type="curve" smooth="yes"/>
      <point x="49" y="102"/>
      <point x="173" y="-19"/>
      <point x="345" y="-20" type="curve"/>
      <point x="307" y="-52"/>
      <point x="279" y="-94"/>
      <point x="279" y="-145" type="curve" smooth="yes"/>
      <point x="279" y="-213"/>
      <point x="305" y="-237"/>
      <point x="305" y="-289" type="curve" smooth="yes"/>
      <point x="305" y="-357"/>
      <point x="231" y="-413"/>
      <point x="171" y="-433" type="curve"/>
      <point x="214" y="-484" type="line"/>
      <point x="325" y="-458"/>
      <point x="449" y="-364"/>
      <point x="449" y="-263" type="curve" smooth="yes"/>
      <point x="449" y="-195"/>
      <point x="410" y="-146"/>
      <point x="410" y="-99" type="curve" smooth="yes"/>
      <point x="410" y="-47"/>
      <point x="456" y="-15"/>
      <point x="496" y="3" type="curve"/>
      <point x="573" y="27"/>
      <point x="646" y="66"/>
      <point x="689" y="115" type="curve"/>
    </contour>
    <contour>
      <point x="371" y="-170" type="move" name="btm"/>
    </contour>
    <contour>
      <point x="528" y="1700" type="move" name="top"/>
    </contour>
    <contour>
      <point x="513" y="1700" type="move" name="top"/>
    </contour>
  </outline>
</glyph>
<glyph name="uni04F9" format="1">
  <advance width="1492"/>
  <unicode hex="04F9"/>
  <outline>
    <contour>
      <point x="144" y="487" type="line"/>
      <point x="73" y="143"/>
      <point x="206" y="-23"/>
      <point x="438" y="-23" type="curve" smooth="yes"/>
      <point x="726" y="-23"/>
      <point x="939" y="245"/>
      <point x="939" y="449" type="curve" smooth="yes"/>
      <point x="939" y="638"/>
      <point x="862" y="748"/>
      <point x="682" y="748" type="curve" smooth="yes"/>
      <point x="495" y="748"/>
      <point x="349" y="616"/>
      <point x="308" y="559" type="curve"/>
      <point x="412" y="1142" type="line"/>
      <point x="369" y="1163" type="line"/>
      <point x="164" y="1121" type="line"/>
      <point x="151" y="1049" type="line"/>
      <point x="247" y="1003" type="line"/>
    </contour>
    <contour>
      <point x="280" y="403" type="curve"/>
      <point x="324" y="523"/>
      <point x="483" y="637"/>
      <point x="612" y="637" type="curve" smooth="yes"/>
      <point x="762" y="637"/>
      <point x="785" y="536"/>
      <point x="785" y="422" type="curve" smooth="yes"/>
      <point x="785" y="258"/>
      <point x="647" y="67"/>
      <point x="453" y="67" type="curve" smooth="yes"/>
      <point x="308" y="67"/>
      <point x="240" y="207"/>
    </contour>
    <contour>
      <point x="1164" y="-18" type="curve" smooth="yes"/>
      <point x="1274" y="-18"/>
      <point x="1368" y="86"/>
      <point x="1384" y="113" type="curve"/>
      <point x="1359" y="158" type="line"/>
      <point x="1309" y="106"/>
      <point x="1275" y="87"/>
      <point x="1247" y="87" type="curve" smooth="yes"/>
      <point x="1227" y="87"/>
      <point x="1215" y="108"/>
      <point x="1222" y="159" type="curve" smooth="yes"/>
      <point x="1352" y="1151" type="line"/>
      <point x="1205" y="1151" type="line"/>
      <point x="1196" y="1078"/>
      <point x="1079" y="155"/>
      <point x="1073" y="119" type="curve"/>
      <point x="1063" y="33"/>
      <point x="1092" y="-18"/>
    </contour>
    <contour>
      <point x="1027" y="1402" type="curve" smooth="yes"/>
      <point x="1090" y="1402"/>
      <point x="1142" y="1459"/>
      <point x="1144" y="1529" type="curve" smooth="yes"/>
      <point x="1145" y="1583"/>
      <point x="1110" y="1623"/>
      <point x="1052" y="1623" type="curve" smooth="yes"/>
      <point x="994" y="1623"/>
      <point x="942" y="1568"/>
      <point x="941" y="1499" type="curve"/>
      <point x="939" y="1443"/>
      <point x="978" y="1402"/>
    </contour>
    <contour>
      <point x="605" y="1402" type="curve" smooth="yes"/>
      <point x="668" y="1402"/>
      <point x="721" y="1459"/>
      <point x="722" y="1529" type="curve" smooth="yes"/>
      <point x="723" y="1583"/>
      <point x="688" y="1623"/>
      <point x="631" y="1623" type="curve" smooth="yes"/>
      <point x="573" y="1623"/>
      <point x="520" y="1568"/>
      <point x="519" y="1499" type="curve" smooth="yes"/>
      <point x="518" y="1443"/>
      <point x="556" y="1402"/>
    </contour>
  </outline>
</glyph>
<glyph name="uni050D" format="1">
  <advance width="1155"/>
  <unicode hex="050D"/>
  <outline>
    <contour>
      <point x="508" y="-23" type="curve" smooth="yes"/>
      <point x="726" y="-23"/>
      <point x="964" y="115"/>
      <point x="991" y="379" type="curve" smooth="yes"/>
      <point x="997" y="433"/>
      <point x="1004" y="514"/>
      <point x="1004" y="579" type="curve"/>
      <point x="870" y="579" type="line"/>
      <point x="870" y="526"/>
      <point x="864" y="454"/>
      <point x="856" y="401" type="curve" smooth="yes"/>
      <point x="824" y="179"/>
      <point x="688" y="86"/>
      <point x="548" y="86" type="curve" smooth="yes"/>
      <point x="371" y="86"/>
      <point x="238" y="214"/>
      <point x="238" y="487" type="curve" smooth="yes"/>
      <point x="238" y="845"/>
      <point x="424" y="1076"/>
      <point x="677" y="1076" type="curve" smooth="yes"/>
      <point x="790" y="1076"/>
      <point x="864" y="1052"/>
      <point x="894" y="1014" type="curve"/>
      <point x="900" y="854" type="line"/>
      <point x="987" y="854" type="line"/>
      <point x="1028" y="1106" type="line"/>
      <point x="982" y="1130"/>
      <point x="839" y="1166"/>
      <point x="714" y="1166" type="curve" smooth="yes"/>
      <point x="330" y="1166"/>
      <point x="86" y="810"/>
      <point x="86" y="454" type="curve" smooth="yes"/>
      <point x="86" y="180"/>
      <point x="232" y="-23"/>
    </contour>
    <contour>
      <point x="510" y="-170" type="move" name="btm"/>
    </contour>
    <contour>
      <point x="520" y="1700" type="move" name="top"/>
    </contour>
    <contour>
      <point x="436" y="1700" type="move" name="top"/>
    </contour>
  </outline>
</glyph>
<glyph name="endash" format="1">
  <advance width="1550"/>
  <unicode hex="2013"/>
  <outline>
    <contour>
      <point x="239" y="710" type="line"/>
      <point x="1342" y="710" type="line"/>
      <point x="1364" y="836" type="line"/>
      <point x="262" y="836" type="line"/>
    </contour>
  </outline>
</glyph>
<glyph name="uni20B2" format="1">
  <advance width="1606"/>
  <unicode hex="20B2"/>
  <outline>
    <contour>
      <point x="236" y="627" type="curve" smooth="yes"/>
      <point x="241" y="327"/>
      <point x="375" y="4"/>
      <point x="709" y="-16" type="curve"/>
      <point x="676" y="-252" type="line"/>
      <point x="797" y="-252" type="line"/>
      <point x="830" y="-12" type="line"/>
      <point x="954" y="0"/>
      <point x="1066" y="36"/>
      <point x="1147" y="61" type="curve" smooth="yes"/>
      <point x="1201" y="77"/>
      <point x="1235" y="90"/>
      <point x="1274" y="94" type="curve"/>
      <point x="1363" y="723" type="line"/>
      <point x="923" y="723" type="line"/>
      <point x="913" y="630" type="line"/>
      <point x="1195" y="616" type="line"/>
      <point x="1132" y="178" type="line"/>
      <point x="1057" y="111"/>
      <point x="904" y="77"/>
      <point x="787" y="77" type="curve" smooth="yes"/>
      <point x="510" y="77"/>
      <point x="398" y="371"/>
      <point x="395" y="643" type="curve" smooth="yes"/>
      <point x="391" y="998"/>
      <point x="571" y="1443"/>
      <point x="955" y="1443" type="curve" smooth="yes"/>
      <point x="1126" y="1443"/>
      <point x="1199" y="1413"/>
      <point x="1253" y="1376" type="curve"/>
      <point x="1257" y="1175" type="line"/>
      <point x="1354" y="1175" type="line"/>
      <point x="1411" y="1471" type="line"/>
      <point x="1373" y="1482" type="line" smooth="yes"/>
      <point x="1309" y="1500"/>
      <point x="1204" y="1530"/>
      <point x="1039" y="1536" type="curve"/>
      <point x="1066" y="1753" type="line"/>
      <point x="946" y="1753" type="line"/>
      <point x="919" y="1536" type="line"/>
      <point x="544" y="1505"/>
      <point x="226" y="1151"/>
    </contour>
  </outline>
</glyph>
<glyph name="uni20B5" format="1">
  <advance width="1534"/>
  <unicode hex="20B5"/>
  <outline>
    <contour>
      <point x="698" y="-354" type="line"/>
      <point x="758" y="-25" type="line"/>
      <point x="762" y="-25" type="line" smooth="yes"/>
      <point x="903" y="-25"/>
      <point x="1004" y="4"/>
      <point x="1082" y="30" type="curve"/>
      <point x="1133" y="49"/>
      <point x="1172" y="65"/>
      <point x="1209" y="69" type="curve"/>
      <point x="1256" y="268" type="line"/>
      <point x="1181" y="285" type="line"/>
      <point x="1115" y="162" type="line"/>
      <point x="1026" y="98"/>
      <point x="915" y="60"/>
      <point x="806" y="60" type="curve" smooth="yes"/>
      <point x="795" y="60"/>
      <point x="784" y="60"/>
      <point x="774" y="61" type="curve"/>
      <point x="1027" y="1442" type="line"/>
      <point x="1144" y="1434"/>
      <point x="1229" y="1403"/>
      <point x="1275" y="1370" type="curve"/>
      <point x="1277" y="1187" type="line"/>
      <point x="1352" y="1187" type="line"/>
      <point x="1405" y="1466" type="line"/>
      <point x="1387" y="1471"/>
      <point x="1346" y="1482"/>
      <point x="1322" y="1490" type="curve"/>
      <point x="1257" y="1509"/>
      <point x="1168" y="1535"/>
      <point x="1045" y="1538" type="curve"/>
      <point x="1096" y="1815" type="line"/>
      <point x="1005" y="1815" type="line"/>
      <point x="954" y="1535" type="line"/>
      <point x="569" y="1502"/>
      <point x="282" y="1197"/>
      <point x="240" y="703" type="curve"/>
      <point x="204" y="321"/>
      <point x="332" y="26"/>
      <point x="668" y="-19" type="curve"/>
      <point x="607" y="-354" type="line"/>
    </contour>
    <contour>
      <point x="398" y="735" type="curve"/>
      <point x="433" y="1168"/>
      <point x="637" y="1427"/>
      <point x="937" y="1443" type="curve"/>
      <point x="685" y="73" type="line"/>
      <point x="420" y="136"/>
      <point x="369" y="417"/>
    </contour>
  </outline>
</glyph>
<glyph name="estimated" format="1">
  <advance width="1366"/>
  <unicode hex="212E"/>
  <outline>
    <contour>
      <point x="1263" y="631" type="line"/>
      <point x="1274" y="682"/>
      <point x="1274" y="746"/>
      <point x="1274" y="832" type="curve"/>
      <point x="1263" y="1161"/>
      <point x="1025" y="1361"/>
      <point x="736" y="1356" type="curve" smooth="yes"/>
      <point x="321" y="1349"/>
      <point x="109" y="1063"/>
      <point x="109" y="671" type="curve" smooth="yes"/>
      <point x="109" y="241"/>
      <point x="340" y="-16"/>
      <point x="732" y="-16" type="curve" smooth="yes"/>
      <point x="870" y="-16"/>
      <point x="1069" y="21"/>
      <point x="1154" y="82" type="curve"/>
      <point x="1124" y="173" type="line"/>
      <point x="1055" y="135"/>
      <point x="895" y="78"/>
      <point x="750" y="78" type="curve" smooth="yes"/>
      <point x="571" y="78"/>
      <point x="424" y="133"/>
      <point x="337" y="267" type="curve"/>
      <point x="337" y="631" type="line"/>
    </contour>
    <contour>
      <point x="727" y="1261" type="curve" smooth="yes"/>
      <point x="898" y="1261"/>
      <point x="1002" y="1200"/>
      <point x="1063" y="1114" type="curve"/>
      <point x="1063" y="742" type="line"/>
      <point x="337" y="741" type="line"/>
      <point x="337" y="1063" type="line"/>
      <point x="422" y="1199"/>
      <point x="564" y="1261"/>
    </contour>
  </outline>
</glyph>
<glyph name="summation" format="1">
  <advance width="1592"/>
  <unicode hex="2211"/>
  <outline>
    <contour>
      <point x="230" y="-129" type="line"/>
      <point x="250" y="-171" type="line"/>
      <point x="1323" y="-172" type="line"/>
      <point x="1371" y="139" type="line"/>
      <point x="1288" y="158" type="line"/>
      <point x="1198" y="-68" type="line"/>
      <point x="405" y="-84" type="line"/>
      <point x="962" y="694" type="line"/>
      <point x="405" y="1438" type="line"/>
      <point x="1199" y="1424" type="line"/>
      <point x="1252" y="1238" type="line"/>
      <point x="1345" y="1238" type="line"/>
      <point x="1318" y="1522" type="line"/>
      <point x="254" y="1522" type="line"/>
      <point x="231" y="1457" type="line"/>
      <point x="801" y="679" type="line"/>
    </contour>
  </outline>
</glyph>
<glyph name="infinity" format="1">
  <advance width="1886"/>
  <unicode hex="221E"/>
  <outline>
    <contour>
      <point x="175" y="597" type="curve" smooth="yes"/>
      <point x="175" y="417"/>
      <point x="299" y="236"/>
      <point x="558" y="240" type="curve" smooth="yes"/>
      <point x="719" y="242"/>
      <point x="852" y="379"/>
      <point x="932" y="518" type="curve"/>
      <point x="1029" y="382"/>
      <point x="1145" y="240"/>
      <point x="1321" y="240" type="curve" smooth="yes"/>
      <point x="1566" y="240"/>
      <point x="1715" y="412"/>
      <point x="1715" y="637" type="curve" smooth="yes"/>
      <point x="1715" y="817"/>
      <point x="1613" y="998"/>
      <point x="1354" y="994" type="curve" smooth="yes"/>
      <point x="1192" y="991"/>
      <point x="1044" y="855"/>
      <point x="960" y="717" type="curve"/>
      <point x="864" y="853"/>
      <point x="750" y="994"/>
      <point x="573" y="994" type="curve" smooth="yes"/>
      <point x="345" y="994"/>
      <point x="175" y="822"/>
    </contour>
    <contour>
      <point x="574" y="334" type="curve" smooth="yes"/>
      <point x="398" y="334"/>
      <point x="309" y="486"/>
      <point x="309" y="626" type="curve" smooth="yes"/>
      <point x="309" y="765"/>
      <point x="392" y="896"/>
      <point x="549" y="896" type="curve" smooth="yes"/>
      <point x="706" y="896"/>
      <point x="807" y="710"/>
      <point x="884" y="588" type="curve"/>
      <point x="799" y="457"/>
      <point x="693" y="334"/>
    </contour>
    <contour>
      <point x="1338" y="892" type="curve" smooth="yes"/>
      <point x="1513" y="892"/>
      <point x="1580" y="743"/>
      <point x="1580" y="608" type="curve" smooth="yes"/>
      <point x="1580" y="478"/>
      <point x="1529" y="330"/>
      <point x="1359" y="330" type="curve" smooth="yes"/>
      <point x="1206" y="330"/>
      <point x="1088" y="521"/>
      <point x="1009" y="646" type="curve"/>
      <point x="1085" y="755"/>
      <point x="1207" y="892"/>
    </contour>
  </outline>
</glyph>
<glyph name="IJ_acutecomb" format="1">
  <advance width="1396"/>
  <outline>
    <contour>
      <point x="47" y="0" type="line"/>
      <point x="503" y="0" type="line"/>
      <point x="509" y="70" type="line"/>
      <point x="354" y="94" type="line"/>
      <point x="521" y="1422" type="line"/>
      <point x="671" y="1441" type="line"/>
      <point x="679" y="1522" type="line"/>
      <point x="244" y="1522" type="line"/>
      <point x="234" y="1441" type="line"/>
      <point x="370" y="1422" type="line"/>
      <point x="203" y="94" type="line"/>
      <point x="54" y="69" type="line"/>
    </contour>
    <contour>
      <point x="466" y="1614" type="line"/>
      <point x="563" y="1669"/>
      <point x="739" y="1801"/>
      <point x="794" y="1906" type="curve"/>
      <point x="699" y="2000" type="line"/>
      <point x="416" y="1651" type="line"/>
    </contour>
    <contour>
      <point x="910" y="90" type="curve" smooth="yes"/>
      <point x="873" y="-74"/>
      <point x="717" y="-227"/>
      <point x="535" y="-274" type="curve"/>
      <point x="563" y="-345" type="line"/>
      <point x="764" y="-310"/>
      <point x="974" y="-197"/>
      <point x="1055" y="75" type="curve" smooth="yes"/>
      <point x="1084" y="170"/>
      <point x="1147" y="752"/>
      <point x="1220" y="1423" type="curve"/>
      <point x="1394" y="1441" type="line"/>
      <point x="1402" y="1522" type="line"/>
      <point x="918" y="1522" type="line"/>
      <point x="907" y="1441" type="line"/>
      <point x="1075" y="1423" type="line"/>
      <point x="1025" y="988"/>
      <point x="978" y="411"/>
    </contour>
    <component base="acute.cap" xOffset="1057" yOffset="-1"/>
  </outline>
</glyph>
<glyph name="f_f_i_dflt" format="1">
  <advance width="2040"/>
  <outline>
    <contour>
      <point x="850" y="-127" type="line"/>
      <point x="829" y="-285"/>
      <point x="792" y="-398"/>
      <point x="700" y="-398" type="curve" smooth="yes"/>
      <point x="645" y="-399"/>
      <point x="551" y="-371"/>
      <point x="538" y="-365" type="curve"/>
      <point x="498" y="-499" type="line"/>
      <point x="526" y="-507"/>
      <point x="595" y="-514"/>
      <point x="660" y="-513" type="curve" smooth="yes"/>
      <point x="852" y="-511"/>
      <point x="974" y="-338"/>
      <point x="1007" y="-74" type="curve" smooth="yes"/>
      <point x="1150" y="1040" type="line"/>
      <point x="1411" y="1040" type="line"/>
      <point x="1423" y="1155" type="line"/>
      <point x="1164" y="1155" type="line"/>
      <point x="1178" y="1263" type="line" smooth="yes"/>
      <point x="1199" y="1435"/>
      <point x="1273" y="1552"/>
      <point x="1386" y="1553" type="curve" smooth="yes"/>
      <point x="1453" y="1554"/>
      <point x="1496" y="1527"/>
      <point x="1519" y="1510" type="curve"/>
      <point x="1564" y="1644" type="line"/>
      <point x="1517" y="1666"/>
      <point x="1468" y="1670"/>
      <point x="1419" y="1670" type="curve" smooth="yes"/>
      <point x="1239" y="1670"/>
      <point x="1066" y="1480"/>
      <point x="1030" y="1249" type="curve" smooth="yes"/>
      <point x="1015" y="1150" type="line"/>
      <point x="869" y="1101" type="line"/>
      <point x="856" y="1040" type="line"/>
      <point x="996" y="1040" type="line"/>
    </contour>
    <contour>
      <point x="146" y="-127" type="line"/>
      <point x="125" y="-285"/>
      <point x="88" y="-398"/>
      <point x="-4" y="-398" type="curve" smooth="yes"/>
      <point x="-59" y="-399"/>
      <point x="-153" y="-371"/>
      <point x="-166" y="-365" type="curve"/>
      <point x="-206" y="-499" type="line"/>
      <point x="-178" y="-507"/>
      <point x="-109" y="-514"/>
      <point x="-44" y="-513" type="curve" smooth="yes"/>
      <point x="148" y="-511"/>
      <point x="270" y="-338"/>
      <point x="303" y="-74" type="curve" smooth="yes"/>
      <point x="446" y="1040" type="line"/>
      <point x="707" y="1040" type="line"/>
      <point x="720" y="1155" type="line"/>
      <point x="460" y="1155" type="line"/>
      <point x="469" y="1233" type="line" smooth="yes"/>
      <point x="491" y="1404"/>
      <point x="569" y="1522"/>
      <point x="687" y="1523" type="curve" smooth="yes"/>
      <point x="760" y="1524"/>
      <point x="806" y="1497"/>
      <point x="832" y="1480" type="curve"/>
      <point x="877" y="1614" type="line"/>
      <point x="826" y="1636"/>
      <point x="773" y="1640"/>
      <point x="720" y="1640" type="curve" smooth="yes"/>
      <point x="536" y="1640"/>
      <point x="358" y="1450"/>
      <point x="322" y="1218" type="curve" smooth="yes"/>
      <point x="311" y="1150" type="line"/>
      <point x="165" y="1101" type="line"/>
      <point x="152" y="1040" type="line"/>
      <point x="292" y="1040" type="line"/>
    </contour>
    <contour>
      <point x="1587" y="99" type="curve" smooth="yes"/>
      <point x="1580" y="11"/>
      <point x="1629" y="-20"/>
      <point x="1694" y="-20" type="curve" smooth="yes"/>
      <point x="1804" y="-20"/>
      <point x="1889" y="84"/>
      <point x="1907" y="112" type="curve"/>
      <point x="1881" y="156" type="line"/>
      <point x="1833" y="104"/>
      <point x="1803" y="85"/>
      <point x="1773" y="85" type="curve" smooth="yes"/>
      <point x="1754" y="85"/>
      <point x="1737" y="108"/>
      <point x="1744" y="158" type="curve" smooth="yes"/>
      <point x="1885" y="1138" type="line"/>
      <point x="1845" y="1159" type="line"/>
      <point x="1595" y="1117" type="line"/>
      <point x="1582" y="1052" type="line"/>
      <point x="1716" y="1012" type="line"/>
      <point x="1676" y="712"/>
      <point x="1596" y="225"/>
    </contour>
  </outline>
</glyph>
<glyph name="two.numr" format="1">
  <advance width="1020"/>
  <outline>
    <contour>
      <point x="124" y="529" type="line"/>
      <point x="867" y="529" type="line"/>
      <point x="933" y="788" type="line"/>
      <point x="856" y="804" type="line"/>
      <point x="779" y="646" type="line"/>
      <point x="256" y="623" type="line"/>
      <point x="533" y="774"/>
      <point x="895" y="1068"/>
      <point x="895" y="1305" type="curve" smooth="yes"/>
      <point x="895" y="1427"/>
      <point x="795" y="1538"/>
      <point x="595" y="1537" type="curve" smooth="yes"/>
      <point x="424" y="1536"/>
      <point x="270" y="1431"/>
      <point x="214" y="1360" type="curve"/>
      <point x="260" y="1303" type="line"/>
      <point x="319" y="1365"/>
      <point x="443" y="1429"/>
      <point x="567" y="1429" type="curve" smooth="yes"/>
      <point x="694" y="1429"/>
      <point x="758" y="1358"/>
      <point x="758" y="1272" type="curve" smooth="yes"/>
      <point x="758" y="1003"/>
      <point x="265" y="703"/>
      <point x="102" y="608" type="curve"/>
    </contour>
  </outline>
</glyph>
